<svg width="48" height="48" viewBox="0 0 48 48" fill="none" xmlns="http://www.w3.org/2000/svg">
<path d="M43.848 10.5071C40.9556 6.25243 36.7726 3.0398 31.9157 1.34296C27.0589 -0.353878 21.7853 -0.445109 16.8727 1.08272C11.9601 2.61056 7.66842 5.67658 4.63061 9.82867C1.59279 13.9808 -0.0303846 18.9991 0.000430517 24.1438C0.0312457 29.2884 1.71442 34.2869 4.80176 38.4023C7.88909 42.5177 12.2172 45.5321 17.1477 47.001C22.0783 48.4699 27.3504 48.3155 32.1866 46.5606C37.0227 44.8057 41.167 41.5432 44.0082 37.2542L39.0093 33.9427C36.878 37.1602 33.7691 39.6076 30.1412 40.924C26.5133 42.2405 22.5584 42.3563 18.8597 41.2544C15.161 40.1525 11.9143 37.8912 9.59827 34.804C7.28228 31.7168 6.01963 27.9671 5.99651 24.1078C5.9734 20.2485 7.19104 16.484 9.46988 13.3693C11.7487 10.2545 14.9681 7.95452 18.6534 6.80841C22.3386 5.66229 26.2946 5.73073 29.938 7.00363C33.5814 8.27652 36.7194 10.6865 38.8891 13.8782L43.848 10.5071Z" fill="white"/>
<path d="M36.2395 15.6796C34.4559 13.0559 31.8764 11.0747 28.8813 10.0284C25.8863 8.98197 22.6342 8.92571 19.6048 9.86787C16.5753 10.81 13.9288 12.7008 12.0555 15.2612C10.1822 17.8217 9.18121 20.9163 9.20022 24.0888C9.21922 27.2614 10.2572 30.3438 12.161 32.8816C14.0649 35.4195 16.7339 37.2783 19.7744 38.1842C22.8149 39.09 26.066 38.9947 29.0483 37.9126C32.0306 36.8304 34.5863 34.8185 36.3383 32.1736L31.0839 28.6929C30.0779 30.2114 28.6107 31.3665 26.8984 31.9878C25.1862 32.6091 23.3196 32.6638 21.5739 32.1437C19.8282 31.6237 18.2959 30.5564 17.2028 29.0994C16.1097 27.6423 15.5138 25.8726 15.5029 24.0511C15.492 22.2296 16.0666 20.4529 17.1422 18.9828C18.2177 17.5128 19.7372 16.4272 21.4765 15.8863C23.2158 15.3454 25.083 15.3777 26.8025 15.9784C28.5221 16.5792 30.0031 17.7166 31.0272 19.223L36.2395 15.6796Z" fill="white"/>
</svg>
